<svg xmlns="http://www.w3.org/2000/svg" xmlns:xlink="http://www.w3.org/1999/xlink" contentStyleType="text/css" data-diagram-type="CLASS" height="338px" preserveAspectRatio="none" style="width:395px;height:338px;background:#FFFFFF;" version="1.1" viewBox="0 0 395 338" width="395px" zoomAndPan="magnify"><title>Keyple - keyple-logging-slf4j-jvm-lib - 1.0.0 (2026-01-30)</title><defs><filter height="1" id="b1ud6ceohla3b20" width="1" x="0" y="0"><feFlood flood-color="#FFFF00" result="flood"/><feComposite in="SourceGraphic" in2="flood" operator="over"/></filter></defs><g><g class="title" data-source-line="1"><text fill="#000000" font-family="sans-serif" font-size="14" font-weight="bold" lengthAdjust="spacing" textLength="367.999" x="10" y="25.1074">Keyple - keyple-logging-slf4j-jvm-lib - 1.0.0 (2026-01-30)</text></g><g class="legend" data-source-line="53"><rect fill="#DDDDDD" height="65.8633" rx="7.5" ry="7.5" style="stroke:#000000;stroke-width:1;" width="177.627" x="105.186" y="51.6211"/><text fill="#000000" font-family="sans-serif" font-size="14" lengthAdjust="spacing" text-decoration="underline" textLength="86.3857" x="110.186" y="71.7285">Colors legend</text><text fill="#000000" font-family="sans-serif" font-size="14" lengthAdjust="spacing" textLength="3.8896" x="200.4614" y="71.7285">:</text><ellipse cx="115.686" cy="86.3633" fill="#000000" rx="2.5" ry="2.5"/><text fill="#000000" font-family="sans-serif" font-size="14" lengthAdjust="spacing" text-decoration="underline" textLength="147.8477" x="122.186" y="90.3496">External API references</text><text fill="#000000" font-family="sans-serif" font-size="14" lengthAdjust="spacing" textLength="3.8896" x="273.9233" y="90.3496">:</text><rect fill="#000000" height="3.5" width="3.5" x="119.186" y="102.4844"/><text fill="#000000" filter="url(#b1ud6ceohla3b20)" font-family="sans-serif" font-size="14" font-weight="bold" lengthAdjust="spacing" textLength="122.1445" x="126.186" y="108.9707">keyple-util-java-lib</text></g><!--cluster api--><g class="cluster" data-entity="api" data-source-line="59" data-uid="ent0002" id="cluster_api"><path d="M56.9995,136.498 L320.1782,136.498 A3.75,3.75 0 0 1 322.6782,138.998 L329.6782,161.1191 L343.9995,161.1191 A2.5,2.5 0 0 1 346.4995,163.6191 L346.4995,328.998 A2.5,2.5 0 0 1 343.9995,331.498 L56.9995,331.498 A2.5,2.5 0 0 1 54.4995,328.998 L54.4995,138.998 A2.5,2.5 0 0 1 56.9995,136.498" fill="#F8F9F9" style="stroke:#000000;stroke-width:1.5;"/><line style="stroke:#000000;stroke-width:1.5;" x1="54.4995" x2="329.6782" y1="161.1191" y2="161.1191"/><text fill="#000000" font-family="sans-serif" font-size="14" font-weight="bold" lengthAdjust="spacing" textLength="262.1787" x="58.4995" y="153.6055">org.eclipse.keyple.logging.slf4j.internal</text></g><!--class Slf4jLoggerProvider--><g class="entity" data-entity="Slf4jLoggerProvider" data-source-line="60" data-uid="ent0003" id="entity_Slf4jLoggerProvider"><rect fill="#FEFECE" height="141.7266" rx="2.5" ry="2.5" style="stroke:#D4AC0D;stroke-width:2;" width="259.4541" x="70.9995" y="173.498"/><ellipse cx="113.3717" cy="197.1191" fill="#ADD1B2" rx="11" ry="11" style="stroke:#ADD1B2;stroke-width:1;"/><path d="M116.1374,192.9941 Q116.2936,192.7754 116.4811,192.666 Q116.6686,192.5566 116.8874,192.5566 Q117.2624,192.5566 117.4967,192.8223 Q117.7311,193.0723 117.7311,193.6816 L117.7311,195.1348 Q117.7311,195.7441 117.4967,196.0098 Q117.2624,196.2754 116.8874,196.2754 Q116.5436,196.2754 116.3405,196.0723 Q116.1374,195.8848 116.028,195.3691 Q115.9811,195.0098 115.7936,194.8223 Q115.4655,194.4473 114.8561,194.2285 Q114.2467,194.0098 113.6217,194.0098 Q112.8561,194.0098 112.2155,194.3379 Q111.5905,194.666 111.0905,195.416 Q110.6061,196.166 110.6061,197.1973 L110.6061,198.291 Q110.6061,199.5254 111.4967,200.3535 Q112.3874,201.166 113.9811,201.166 Q114.9186,201.166 115.5749,200.916 Q115.9655,200.7598 116.3874,200.3223 Q116.653,200.0566 116.7936,199.9785 Q116.9499,199.9004 117.153,199.9004 Q117.4811,199.9004 117.7311,200.166 Q117.9967,200.416 117.9967,200.7598 Q117.9967,201.1035 117.653,201.5098 Q117.153,202.0879 116.3561,202.416 Q115.278,202.8691 113.9811,202.8691 Q112.4655,202.8691 111.2624,202.2441 Q110.278,201.7441 109.5905,200.6816 Q108.903,199.6035 108.903,198.3223 L108.903,197.166 Q108.903,195.8379 109.5124,194.6973 Q110.1374,193.541 111.2311,192.9316 Q112.3249,192.3066 113.5592,192.3066 Q114.2936,192.3066 114.9342,192.4785 Q115.5905,192.6348 116.1374,192.9941 Z " fill="#000000"/><ellipse cx="138.4544" cy="196.6191" fill="#84BE84" rx="3" ry="3" style="stroke:#038048;stroke-width:1;"/><text fill="#000000" font-family="sans-serif" font-size="14" lengthAdjust="spacing" textLength="16.3516" x="154.1649" y="193.6055">&lt;&lt;</text><text fill="#000000" filter="url(#b1ud6ceohla3b20)" font-family="sans-serif" font-size="14" lengthAdjust="spacing" textLength="95.7236" x="174.4061" y="193.6055">LoggerProvider</text><text fill="#000000" font-family="sans-serif" font-size="14" lengthAdjust="spacing" textLength="16.3516" x="274.0194" y="193.6055">&gt;&gt;</text><text fill="#000000" font-family="sans-serif" font-size="14" font-weight="bold" lengthAdjust="spacing" textLength="28.7793" x="144.4544" y="212.2266">final</text><text fill="#000000" font-family="sans-serif" font-size="14" lengthAdjust="spacing" textLength="122.958" x="177.1234" y="212.2266">Slf4jLoggerProvider</text><line style="stroke:#D4AC0D;stroke-width:2;" x1="71.9995" x2="329.4536" y1="220.7402" y2="220.7402"/><line style="stroke:#D4AC0D;stroke-width:1;" x1="71.9995" x2="329.4536" y1="228.7402" y2="228.7402"/><ellipse cx="81.9995" cy="243.5508" fill="#84BE84" rx="3" ry="3" style="stroke:#038048;stroke-width:1;"/><text fill="#000000" font-family="sans-serif" font-size="14" lengthAdjust="spacing" textLength="136.1719" x="90.9995" y="247.8477">Slf4jLoggerProvider ()</text><text fill="#000000" font-family="sans-serif" font-size="14" lengthAdjust="spacing" textLength="3.8896" x="90.9995" y="266.4688">&#160;</text><ellipse cx="81.9995" cy="303.4141" fill="#84BE84" rx="3" ry="3" style="stroke:#038048;stroke-width:1;"/><text fill="#000000" filter="url(#b1ud6ceohla3b20)" font-family="sans-serif" font-size="14" lengthAdjust="spacing" textLength="43.5928" x="90.9995" y="307.7109">Logger</text><text fill="#000000" font-family="sans-serif" font-size="14" lengthAdjust="spacing" textLength="185.9717" x="138.4819" y="307.7109">getLogger (String className)</text><line style="stroke:#D4AC0D;stroke-width:1;" x1="71.9995" x2="148.606" y1="283.293" y2="283.293"/><text fill="#000000" font-family="sans-serif" font-size="14" font-weight="bold" lengthAdjust="spacing" textLength="104.2412" x="148.606" y="288.5898">LoggerProvider</text><line style="stroke:#D4AC0D;stroke-width:1;" x1="252.8472" x2="329.4536" y1="283.293" y2="283.293"/></g><!--SRC=[ZPLHRzem58NVyolkkeUrL04AePIA8IMnirNhM5NOGwL9o4rCI35nP3jbQEf_d-E4bZ1KbYVd-FXyzaroenB5g0Nw-aOt6QDWmz8CRCRZE4bZMxAvysG_FQzibZpgwOjckzc6qqwxSsctB-nk-yoYQGJA15cVuFDdc7x5tx4Uw5kVvupcGa8YPKubH1IkOQ5K9gzRhOLQiP0pBa8UKTaC-Qer5or57XabkHrHEonN7v3qK2PnQcUCg9Rr8QBp9ANWpxxSuuSB2Aw2GJ3OapiGT89kuEp9NS0ztCVxRWTG7ta8xSazy5q_G9qz-H8yv7Vz_evyUpF-1brdS8My7VNd14Edx-BBTb4hsuQ9sZ1T5xKW2YAUVbAmvc89wqGj8ALhUAP29Zm5FWTzrbJbAwQNMNAPf1aHP0LIKK6vscJKzRY8gF2BYi97Tu1y51mqtjICdkFsSU-WqQyd8dJXTGuQSSs8lK5Neytvy1WL-zrPvJCYPUcVBf9mcL8fOJVM5OAlTwTqqWDbZA__II7XCXOyJwEA7E00-_WmhB8Wn_NRI4VUq-X8td0eQ3GQwLY44VRVYNrruhwZtmDhaUWNVIk-bKbJxtAXlwwZuCpO3Dl1Vj1_b_rcliAEuw8j_bMlxU2HvSVvXScSnmjwWVSkVMkjtlMANQaryXT1QNeK7HSkmnu4VHoyotxrLjzK1T_A-_JD_y0tXktgzmWVOnjhn-_YtYvwKoUNFT7_CPxYyTHqHKPZqp9vPZhlR6OI9PJwR0RNHc_e6VnR1wM4WNjt0uBETMeQKldcQS3mKH_YUcC-a56ZKRNlN2NCVYBFf6ZRZSQmLRX6fbMN6ClAj49Y2YTSn4qQiYIJj5akRrRTlscwVpD9orsS0950iWJ-6FXvM1G5JeR3-YPkzM8gxWH_rZKH5Hf6erzfew7x865wrvCYk6uqwGVqYbPSkfDiX-U7dATdrevNLwS-hxcx2GSslTriJ5KfmEb42Lq9C6STanKzCm4lralnP5qfUPWGfLkqh9xqhVlmusVveCtzPFfmM_uDjmKlAlXn-w_wysBz1G00]--></g></svg>