<svg xmlns="http://www.w3.org/2000/svg" xmlns:xlink="http://www.w3.org/1999/xlink" contentStyleType="text/css" data-diagram-type="CLASS" height="338px" preserveAspectRatio="none" style="width:403px;height:338px;background:#FFFFFF;" version="1.1" viewBox="0 0 403 338" width="403px" zoomAndPan="magnify"><title>Keyple - keyple-logging-slf4j-jvm-lib - 1.7.32 (2026-01-30)</title><defs><filter height="1" id="b122kzysiadxfu0" width="1" x="0" y="0"><feFlood flood-color="#FFFF00" result="flood"/><feComposite in="SourceGraphic" in2="flood" operator="over"/></filter></defs><g><g class="title" data-source-line="1"><text fill="#000000" font-family="sans-serif" font-size="14" font-weight="bold" lengthAdjust="spacing" textLength="375.7852" x="10" y="25.1074">Keyple - keyple-logging-slf4j-jvm-lib - 1.7.32 (2026-01-30)</text></g><g class="legend" data-source-line="53"><rect fill="#DDDDDD" height="65.8633" rx="7.5" ry="7.5" style="stroke:#000000;stroke-width:1;" width="177.627" x="109.0791" y="51.6211"/><text fill="#000000" font-family="sans-serif" font-size="14" lengthAdjust="spacing" text-decoration="underline" textLength="86.3857" x="114.0791" y="71.7285">Colors legend</text><text fill="#000000" font-family="sans-serif" font-size="14" lengthAdjust="spacing" textLength="3.8896" x="204.3545" y="71.7285">:</text><ellipse cx="119.5791" cy="86.3633" fill="#000000" rx="2.5" ry="2.5"/><text fill="#000000" font-family="sans-serif" font-size="14" lengthAdjust="spacing" text-decoration="underline" textLength="147.8477" x="126.0791" y="90.3496">External API references</text><text fill="#000000" font-family="sans-serif" font-size="14" lengthAdjust="spacing" textLength="3.8896" x="277.8164" y="90.3496">:</text><rect fill="#000000" height="3.5" width="3.5" x="123.0791" y="102.4844"/><text fill="#000000" filter="url(#b122kzysiadxfu0)" font-family="sans-serif" font-size="14" font-weight="bold" lengthAdjust="spacing" textLength="122.1445" x="130.0791" y="108.9707">keyple-util-java-lib</text></g><!--cluster api--><g class="cluster" data-entity="api" data-source-line="59" data-uid="ent0002" id="cluster_api"><path d="M60.8926,136.498 L324.0713,136.498 A3.75,3.75 0 0 1 326.5713,138.998 L333.5713,161.1191 L347.8926,161.1191 A2.5,2.5 0 0 1 350.3926,163.6191 L350.3926,328.998 A2.5,2.5 0 0 1 347.8926,331.498 L60.8926,331.498 A2.5,2.5 0 0 1 58.3926,328.998 L58.3926,138.998 A2.5,2.5 0 0 1 60.8926,136.498" fill="#F8F9F9" style="stroke:#000000;stroke-width:1.5;"/><line style="stroke:#000000;stroke-width:1.5;" x1="58.3926" x2="333.5713" y1="161.1191" y2="161.1191"/><text fill="#000000" font-family="sans-serif" font-size="14" font-weight="bold" lengthAdjust="spacing" textLength="262.1787" x="62.3926" y="153.6055">org.eclipse.keyple.logging.slf4j.internal</text></g><!--class Slf4jLoggerProvider--><g class="entity" data-entity="Slf4jLoggerProvider" data-source-line="60" data-uid="ent0003" id="entity_Slf4jLoggerProvider"><rect fill="#FEFECE" height="141.7266" rx="2.5" ry="2.5" style="stroke:#D4AC0D;stroke-width:2;" width="259.4541" x="74.8926" y="173.498"/><ellipse cx="117.2648" cy="197.1191" fill="#ADD1B2" rx="11" ry="11" style="stroke:#ADD1B2;stroke-width:1;"/><path d="M120.0304,192.9941 Q120.1867,192.7754 120.3742,192.666 Q120.5617,192.5566 120.7804,192.5566 Q121.1554,192.5566 121.3898,192.8223 Q121.6242,193.0723 121.6242,193.6816 L121.6242,195.1348 Q121.6242,195.7441 121.3898,196.0098 Q121.1554,196.2754 120.7804,196.2754 Q120.4367,196.2754 120.2335,196.0723 Q120.0304,195.8848 119.921,195.3691 Q119.8742,195.0098 119.6867,194.8223 Q119.3585,194.4473 118.7492,194.2285 Q118.1398,194.0098 117.5148,194.0098 Q116.7492,194.0098 116.1085,194.3379 Q115.4835,194.666 114.9835,195.416 Q114.4992,196.166 114.4992,197.1973 L114.4992,198.291 Q114.4992,199.5254 115.3898,200.3535 Q116.2804,201.166 117.8742,201.166 Q118.8117,201.166 119.4679,200.916 Q119.8585,200.7598 120.2804,200.3223 Q120.546,200.0566 120.6867,199.9785 Q120.8429,199.9004 121.046,199.9004 Q121.3742,199.9004 121.6242,200.166 Q121.8898,200.416 121.8898,200.7598 Q121.8898,201.1035 121.546,201.5098 Q121.046,202.0879 120.2492,202.416 Q119.171,202.8691 117.8742,202.8691 Q116.3585,202.8691 115.1554,202.2441 Q114.171,201.7441 113.4835,200.6816 Q112.796,199.6035 112.796,198.3223 L112.796,197.166 Q112.796,195.8379 113.4054,194.6973 Q114.0304,193.541 115.1242,192.9316 Q116.2179,192.3066 117.4523,192.3066 Q118.1867,192.3066 118.8273,192.4785 Q119.4835,192.6348 120.0304,192.9941 Z " fill="#000000"/><ellipse cx="142.3475" cy="196.6191" fill="#84BE84" rx="3" ry="3" style="stroke:#038048;stroke-width:1;"/><text fill="#000000" font-family="sans-serif" font-size="14" lengthAdjust="spacing" textLength="16.3516" x="158.058" y="193.6055">&lt;&lt;</text><text fill="#000000" filter="url(#b122kzysiadxfu0)" font-family="sans-serif" font-size="14" lengthAdjust="spacing" textLength="95.7236" x="178.2992" y="193.6055">LoggerProvider</text><text fill="#000000" font-family="sans-serif" font-size="14" lengthAdjust="spacing" textLength="16.3516" x="277.9125" y="193.6055">&gt;&gt;</text><text fill="#000000" font-family="sans-serif" font-size="14" font-weight="bold" lengthAdjust="spacing" textLength="28.7793" x="148.3475" y="212.2266">final</text><text fill="#000000" font-family="sans-serif" font-size="14" lengthAdjust="spacing" textLength="122.958" x="181.0165" y="212.2266">Slf4jLoggerProvider</text><line style="stroke:#D4AC0D;stroke-width:2;" x1="75.8926" x2="333.3467" y1="220.7402" y2="220.7402"/><line style="stroke:#D4AC0D;stroke-width:1;" x1="75.8926" x2="333.3467" y1="228.7402" y2="228.7402"/><ellipse cx="85.8926" cy="243.5508" fill="#84BE84" rx="3" ry="3" style="stroke:#038048;stroke-width:1;"/><text fill="#000000" font-family="sans-serif" font-size="14" lengthAdjust="spacing" textLength="136.1719" x="94.8926" y="247.8477">Slf4jLoggerProvider ()</text><text fill="#000000" font-family="sans-serif" font-size="14" lengthAdjust="spacing" textLength="3.8896" x="94.8926" y="266.4688">&#160;</text><ellipse cx="85.8926" cy="303.4141" fill="#84BE84" rx="3" ry="3" style="stroke:#038048;stroke-width:1;"/><text fill="#000000" filter="url(#b122kzysiadxfu0)" font-family="sans-serif" font-size="14" lengthAdjust="spacing" textLength="43.5928" x="94.8926" y="307.7109">Logger</text><text fill="#000000" font-family="sans-serif" font-size="14" lengthAdjust="spacing" textLength="185.9717" x="142.375" y="307.7109">getLogger (String className)</text><line style="stroke:#D4AC0D;stroke-width:1;" x1="75.8926" x2="152.499" y1="283.293" y2="283.293"/><text fill="#000000" font-family="sans-serif" font-size="14" font-weight="bold" lengthAdjust="spacing" textLength="104.2412" x="152.499" y="288.5898">LoggerProvider</text><line style="stroke:#D4AC0D;stroke-width:1;" x1="256.7402" x2="333.3467" y1="283.293" y2="283.293"/></g><!--SRC=[ZPLVRvim5CNV-HHttSFQL2Gf8QMfiaZyCLkrBgkQxA7IfCW5Xz0u6DccMJJrkyyOqeOiQiQJEJu-F_i25vbAIWnGrpUooIa14vPwO5AM96cMc8BExIVpwNbbqlHHJL-qdNRFWbEhQrsQtGkprpqpI1Q3r4d69_Zy6QPVqNUa1khMPmKb1HUG2b4G0J61QrX8cOlhJcSXLpHYbF68nKIq8xRgp7b7uaTAS676n8ogrGSaDHHfafavnR9ZV8Z9FCq8-BClz-ZX0iAhS10EzcGBGYliXVQUt0FKHmxQTziGE84N17jo7tpN3mDhJxu4B_1xlhCZtzwClq7F7bm5texwSuB0SbnqsIrhPPemaHkgwY8NM4BCiayIremlOPtA1MHa3S-4YvHbmEQWpfh9OaNLCaCiqop77Az0IC89avkSk1xZCU5-ML7uw0u2FmWF6cyQHizs7TG_QFIRYK5muLa7ZQXXHDwWfz3wV6WSbFlTMULJB4JbdoxIQ9aH8M0trkMShNUdLD83ePIj_qd1qJBXhCZYcXoY4FdeCAos1BRhTmCLUK_Y8td38IVnQAHY0nGW_vtOLoToRFKU68jKlUXRyQrCYdfNSFLv7GNdsgRPDl93vrtsc_aAsRORRF6lUcC7ZxGupYzD-ZnUs0-zT-bRQ_skr-nQRP2_S4Aoe-YaT6ds87HG-2xxrLj_KpLyA-_JD_y3tsYsgzuZT8ojhPRVG_rTzAP9hdgY_sCyHUEfxegK9BfbibottjbC9mgezDaChhNUKZFejmhAC0NtxWOucQlKB2BYpTE2uQCwnFL6Vo2ZLglktuLCgVc4dt7PjrkjOQTqZNIhhZ26aIi59mHE64_Q9A9fBaYxMjwkstzRj_zscbMxE04i0ESf_D7mywWi2fmCXyrDtAh5XDznzgngmciqZ4Q_ibPBzK5CrQudPN3JgDCFw3Mjl5GdsGxF3pbFpumThwfESrvnTnCER7gxsOJ8Ie3JYUIg4g3FEiOhSgO3NeoNyicwGh0enLArQ54_wLltuSVFwa7h-ydquRRw6suBNbRmu_PVzUV5-0i0]--></g></svg>